<svg width="24" height="24" viewBox="0 0 24 24" fill="none" xmlns="http://www.w3.org/2000/svg">
<circle cx="12" cy="12" r="12" fill="#9873FF"/>
<path d="M8.28545 13.8394C8.28545 14.3231 8.1167 14.6916 7.7792 14.9447C7.44451 15.1978 6.94248 15.3244 6.27311 15.3244C5.92998 15.3244 5.63748 15.3005 5.39561 15.2526C5.15373 15.2076 4.92732 15.1401 4.71639 15.0501V13.987C4.95545 14.0995 5.22404 14.1937 5.52217 14.2697C5.82311 14.3456 6.08748 14.3836 6.31529 14.3836C6.78217 14.3836 7.01561 14.2486 7.01561 13.9786C7.01561 13.8773 6.98467 13.7958 6.92279 13.7339C6.86092 13.6692 6.75404 13.5975 6.60217 13.5187C6.45029 13.4372 6.24779 13.343 5.99467 13.2361C5.63186 13.0842 5.36467 12.9436 5.19311 12.8142C5.02436 12.6848 4.90061 12.5372 4.82186 12.3712C4.74592 12.2025 4.70795 11.9958 4.70795 11.7511C4.70795 11.332 4.86967 11.0086 5.19311 10.7808C5.51936 10.5501 5.98061 10.4348 6.57686 10.4348C7.14498 10.4348 7.69764 10.5586 8.23482 10.8061L7.8467 11.7342C7.61045 11.633 7.38967 11.55 7.18436 11.4853C6.97904 11.4206 6.76951 11.3883 6.55576 11.3883C6.17607 11.3883 5.98623 11.4909 5.98623 11.6962C5.98623 11.8116 6.0467 11.9114 6.16764 11.9958C6.29139 12.0801 6.55998 12.2053 6.97342 12.3712C7.34186 12.5203 7.61186 12.6595 7.78342 12.7889C7.95498 12.9183 8.08154 13.0673 8.16311 13.2361C8.24467 13.4048 8.28545 13.6059 8.28545 13.8394ZM10.5256 12.675L11.0867 11.9578L12.4072 10.5234H13.8584L11.9853 12.5695L13.9723 15.24H12.4873L11.1289 13.3289L10.5762 13.7719V15.24H9.28951V8.67562H10.5762V11.6034L10.5087 12.675H10.5256ZM17.2714 10.4348C17.8283 10.4348 18.2642 10.6528 18.5792 11.0887C18.8942 11.5219 19.0517 12.1167 19.0517 12.8733C19.0517 13.6523 18.8886 14.2556 18.5623 14.6831C18.2389 15.1106 17.7973 15.3244 17.2376 15.3244C16.6836 15.3244 16.249 15.1233 15.934 14.7211H15.8454L15.6303 15.24H14.6473V8.67562H15.934V10.2028C15.934 10.3969 15.9172 10.7076 15.8834 11.1351H15.934C16.235 10.6683 16.6808 10.4348 17.2714 10.4348ZM16.8579 11.4642C16.5401 11.4642 16.3081 11.5626 16.1619 11.7595C16.0156 11.9536 15.9397 12.2756 15.934 12.7256V12.8648C15.934 13.3711 16.0086 13.7339 16.1576 13.9533C16.3095 14.1726 16.5486 14.2823 16.8748 14.2823C17.1392 14.2823 17.3487 14.1614 17.5034 13.9195C17.6609 13.6748 17.7397 13.3205 17.7397 12.8564C17.7397 12.3923 17.6609 12.045 17.5034 11.8144C17.3459 11.5809 17.1308 11.4642 16.8579 11.4642ZM19.9334 14.6367C19.9334 14.4005 19.9967 14.2219 20.1233 14.1009C20.2498 13.98 20.434 13.9195 20.6759 13.9195C20.9094 13.9195 21.0894 13.9814 21.2159 14.1051C21.3453 14.2289 21.41 14.4061 21.41 14.6367C21.41 14.8589 21.3453 15.0347 21.2159 15.1641C21.0865 15.2906 20.9065 15.3539 20.6759 15.3539C20.4397 15.3539 20.2569 15.292 20.1275 15.1683C19.9981 15.0417 19.9334 14.8645 19.9334 14.6367Z" fill="white"/>
</svg>
